<?xml version="1.0" encoding="utf-8"?>
<!-- Generator: Adobe Illustrator 26.5.0, SVG Export Plug-In . SVG Version: 6.00 Build 0)  -->
<svg version="1.1" xmlns="http://www.w3.org/2000/svg" xmlns:xlink="http://www.w3.org/1999/xlink" x="0px" y="0px"
	 viewBox="0 0 1920 1080" style="enable-background:new 0 0 1920 1080;" xml:space="preserve">
<style type="text/css">
	.st0{stroke:#000000;stroke-width:0.5;stroke-miterlimit:10;}
	.st1{fill:#A9A9A9;stroke:#000000;stroke-width:0.5;stroke-miterlimit:10;}
	.st2{fill:#C6C6C6;stroke:#000000;stroke-width:0.5;stroke-miterlimit:10;}
	.st3{fill:#FF0000;stroke:#000000;stroke-width:0.5;stroke-miterlimit:10;}
	.st4{fill:#FF0000;stroke:#000000;stroke-miterlimit:10;}
</style>
<g id="Laag_1">
</g>
<g id="Laag_2">
	<g id="bLq65a_00000176038546870034844280000010249478432736083892_">
		<g>
			<path d="M1050.16,529.29c44.28,32.3,86.78,63.35,129.34,94.33c41.45,30.16,83.07,60.09,124.4,90.41
				c34.55,25.34,34.57,59.72,0.2,84.83c-99.39,72.59-198.94,144.98-298.23,217.7c-17.79,13.03-36.08,19.81-57.3,9.25
				c-21.1-10.5-26.91-28.65-26.85-50.69c0.34-115.74,0.16-231.49,0.16-352.4c-80.05,58.13-157.24,114.19-236.86,172.01
				c-18.56-24.49-36.78-48.55-56.87-75.06c86.5-63.07,172.2-125.55,261.01-190.3c-87.39-63.8-173.48-126.64-260.81-190.4
				c19.07-25.45,37.29-49.76,56.51-75.41c78.62,57.2,155.68,113.26,233.5,169.87c6.76-6.49,3.32-14.64,3.34-21.65
				c0.25-108.71,0.37-217.43,0.01-326.14c-0.08-22.6,4.41-42.15,26.75-53.11c22.29-10.94,40.92-2.74,59.27,10.72
				c98.59,72.33,197.52,144.21,296.23,216.39c34.67,25.35,34.8,58.93-0.06,84.49c-78.24,57.36-156.8,114.31-235.22,171.43
				C1063.15,519.6,1057.7,523.7,1050.16,529.29z M1019.24,168.89c0,89.71,0,176.72,0,265.84c61.81-45.09,121.29-88.48,182.44-133.09
				C1139.88,256.66,1080.33,213.34,1019.24,168.89z M1018.61,623.36c0,90.2,0,176.98,0,266.84
				c61.99-45.19,121.56-88.63,183.11-133.51C1140.39,712.04,1080.79,668.64,1018.61,623.36z"/>
		</g>
	</g>
</g>
</svg>
