<?xml version="1.0" encoding="utf-8"?>
<!-- Generator: Adobe Illustrator 26.5.0, SVG Export Plug-In . SVG Version: 6.00 Build 0)  -->
<svg version="1.1" xmlns="http://www.w3.org/2000/svg" xmlns:xlink="http://www.w3.org/1999/xlink" x="0px" y="0px"
	 viewBox="0 0 1920 1080" style="enable-background:new 0 0 1920 1080;" xml:space="preserve">
<style type="text/css">
	.st0{stroke:#000000;stroke-width:0.5;stroke-miterlimit:10;}
	.st1{fill:#A9A9A9;stroke:#000000;stroke-width:0.5;stroke-miterlimit:10;}
	.st2{fill:#C6C6C6;stroke:#000000;stroke-width:0.5;stroke-miterlimit:10;}
	.st3{fill:#FF0000;stroke:#000000;stroke-width:0.5;stroke-miterlimit:10;}
	.st4{fill:#FF0000;stroke:#000000;stroke-miterlimit:10;}
</style>
<g id="Laag_1">
</g>
<g id="Laag_2">
	<g id="DQ6svM.tif_00000131328381842390685330000009283883469633973899_">
		<g>
			<path d="M1128.33,921.56c-2.91,12.94-4.68,25.36-8.54,37.15c-15.17,46.3-47.9,76.79-96.34,86.6
				c-83.08,16.83-144.83-38.51-156.73-99.26c-1.22-6.21-2.44-12.46-3-18.74c-0.42-4.7-2.39-5.84-7.08-5.84c-48,0-96-0.13-144-0.42
				c-47.4-0.28-94.81-0.6-142.21-1.24c-26.53-0.36-41.47-11.45-47.06-36.69c-7.41-33.5-5.73-66.72,7.79-98.88
				c6.39-15.21,17.55-26.77,30.26-37.14c8.94-7.3,17.84-14.66,27.03-21.67c25.98-19.81,41.94-46.14,53.11-75.64
				c14.34-37.87,21.96-77.22,27.5-117.02c8.62-62.03,18.77-123.81,39.34-183.35c27.4-79.31,81.35-135.3,161.22-167.61
				c9.5-3.84,19.23-7.17,28.96-10.44c7.18-2.42,7.64-2.55,4.91-9.67c-4.68-12.24-6.73-24.77-6.15-37.81
				c1.82-40.74,28.38-74.83,68.35-87.52c38-12.07,80.4,0.49,106.11,32.07c19.24,23.64,26.52,50.23,18.71,79.96
				c-0.83,3.16-1.57,6.34-2.44,9.49c-2.95,10.65-3.05,10.9,7.93,14.46c33.94,11.02,65.55,26.21,93.57,47.99
				c50.13,38.96,82.38,89.12,99.12,148.85c14.55,51.91,25.13,104.88,31.9,158.26c5.69,44.86,14.59,88.69,31.85,130.94
				c11.32,27.72,27.91,51.47,52.69,69.66c9.78,7.18,18.91,15.2,28.24,22.94c21.79,18.08,32.51,41.59,35.76,68.7
				c2.25,18.74,2.74,37.5-0.03,56.24c-1.79,12.14-7.31,22.58-15.58,31.78c-7.54,8.39-17.09,11.93-28.45,12.03
				c-33.92,0.29-67.83,0.97-101.74,1.16c-63.27,0.35-126.55,0.45-189.83,0.66C1131.73,921.56,1129.97,921.56,1128.33,921.56z
				 M1407.42,857.59c-1.61-12.46-2.98-24.01-4.64-35.52c-1.61-11.16-7.17-20.04-16.61-26.87c-7.46-5.39-14.41-11.44-21.66-17.11
				c-24-18.74-44.59-40.31-59.42-66.7c-14.99-26.66-23.88-55.51-32.57-84.45c-11.8-39.26-15.09-79.91-21.35-120.08
				c-7.39-47.45-16.05-94.69-32.35-140.17c-17.88-49.89-49.62-89.1-97.95-114.97c-57.85-30.96-119.84-35.89-183.04-23.71
				c-85.71,16.51-142.79,66.48-169.2,147.17c-16.54,50.54-26.65,102.67-32.79,155.36c-5.6,48.05-15.74,95.01-32.43,140.61
				c-12.41,33.9-29.76,64.96-57.36,89.64c-13.37,11.96-27.94,22.67-41.79,34.14c-4.02,3.33-8.51,6.78-10.95,11.14
				c-8.96,16.01-8.23,33.84-9.62,51.51C858.1,857.59,1131.75,857.59,1407.42,857.59z M929.54,921.95
				c0.36,29.53,27.23,65.7,72.05,62.42c26.67-1.95,59.16-28.42,58.98-62.42C1016.9,921.95,973.22,921.95,929.54,921.95z
				 M995.59,158.53c16.53-0.02,32.2-15.04,32.09-30.75c-0.13-18.27-14.44-32.45-32.83-32.52c-17.41-0.07-32.06,14.18-32.12,31.23
				C962.67,143.53,978.07,158.55,995.59,158.53z"/>
		</g>
	</g>
</g>
</svg>
