<?xml version="1.0" encoding="utf-8"?>
<!-- Generator: Adobe Illustrator 26.5.0, SVG Export Plug-In . SVG Version: 6.00 Build 0)  -->
<svg version="1.1" xmlns="http://www.w3.org/2000/svg" xmlns:xlink="http://www.w3.org/1999/xlink" x="0px" y="0px"
	 viewBox="0 0 1920 1080" style="enable-background:new 0 0 1920 1080;" xml:space="preserve">
<style type="text/css">
	.st0{stroke:#000000;stroke-width:0.5;stroke-miterlimit:10;}
	.st1{fill:#A9A9A9;stroke:#000000;stroke-width:0.5;stroke-miterlimit:10;}
	.st2{fill:#C6C6C6;stroke:#000000;stroke-width:0.5;stroke-miterlimit:10;}
	.st3{fill:#FF0000;stroke:#000000;stroke-width:0.5;stroke-miterlimit:10;}
	.st4{fill:#FF0000;stroke:#000000;stroke-miterlimit:10;}
</style>
<g id="Laag_1">
	<g id="_x35_nQKWE.tif">
		<g>
			<path class="st0" d="M1591.17,80.55c1.79,0,3.58,0,5.38,0c0.67,2.95,2.77,1.92,4.37,2.07c64.98,6.03,117.84,67.34,123.16,143.05
				c2.01,28.61,0.63,57.3,0.77,85.95c0.03,6.36,1.38,8.33,6.98,8.23c20.88-0.37,41.77-0.37,62.64,0.01
				c20.6,0.37,37.24,10.73,50.47,29.03c8.05,11.14,11.69,24.62,15.06,38.26c0,87.5,0,175,0,262.5c-0.52,0.78-1.3,1.48-1.51,2.37
				c-9.99,41.79-33.55,62.91-70.41,62.99c-17.62,0.04-35.26,0.45-52.86-0.2c-7.78-0.28-10.81,1.54-10.46,11.69
				c0.76,21.66,0.29,43.39,0.21,65.08c-0.09,25.88-4.04,50.9-14.62,73.79c-27.46,59.36-70.4,87.35-127.89,87.32
				c-445.33-0.21-890.65-0.11-1335.98-0.12c-3.28,0-6.57-0.04-9.85-0.14c-75.09-2.19-132.84-71.1-132.91-159.26
				c-0.15-183.74-0.13-367.48-0.01-551.21c0.06-85.03,52.93-152.1,125.34-159.63c2.99-0.02,5.99-0.04,8.98-0.05
				c2.08,0.12,4.16,0.35,6.24,0.35c446.29,0.02,892.59,0.02,1338.88-0.08C1585.8,82.55,1589.14,84.63,1591.17,80.55z M913.57,873.66
				c223.41,0,446.82,0.01,670.24-0.01c45.49-0.01,73.57-33.04,73.57-86.45c0.01-179.89-0.01-359.78,0.03-539.67
				c0-9.84-0.47-19.55-2.85-29.05c-9.11-36.36-34.93-57.42-70.69-57.42c-359.61-0.01-719.22-0.01-1078.83-0.01
				c-87.51,0-175.03-0.13-262.54,0.06c-42.54,0.09-71.06,33.24-71.09,82.66c-0.11,182.34-0.04,364.68-0.05,547.02
				c0,9.48,0.61,18.8,3.19,27.91c9.8,34.68,35.28,54.94,69.68,54.94C467.34,873.67,690.46,873.66,913.57,873.66z"/>
			<path class="st1" d="M1591.17,80.55c-2.03,4.08-5.37,2-8.03,2c-446.29,0.1-892.59,0.1-1338.88,0.08c-2.08,0-4.16-0.23-6.24-0.35
				c0.04-0.58,0.05-1.15,0.05-1.73C689.11,80.55,1140.14,80.55,1591.17,80.55z"/>
			<path class="st2" d="M238.07,80.55c0,0.58-0.02,1.16-0.05,1.73c-2.99,0.02-5.99,0.04-8.98,0.05c0.09-0.59,0.11-1.19,0.08-1.79
				C232.1,80.55,235.09,80.55,238.07,80.55z"/>
			<path class="st0" d="M402.23,518.47c0,88.52-0.03,177.04,0.06,265.55c0.01,7.86-0.49,10.61-3.48,10.59
				c-52.28-0.3-104.57-0.28-156.85-0.05c-2.62,0.01-3.45-1.47-3.45-9.63c0.09-178.43,0.08-356.87,0.02-535.3
				c0-7.05,0.47-9.51,3.12-9.5c52.53,0.24,105.05,0.24,157.58-0.01c2.72-0.01,3.07,2.8,3.07,9.64
				C402.21,339.34,402.23,428.91,402.23,518.47z"/>
		</g>
	</g>
</g>
<g id="Laag_2">
</g>
</svg>
