<?xml version="1.0" encoding="utf-8"?>
<!-- Generator: Adobe Illustrator 26.5.0, SVG Export Plug-In . SVG Version: 6.00 Build 0)  -->
<svg version="1.1" xmlns="http://www.w3.org/2000/svg" xmlns:xlink="http://www.w3.org/1999/xlink" x="0px" y="0px"
	 viewBox="0 0 1920 1080" style="enable-background:new 0 0 1920 1080;" xml:space="preserve">
<style type="text/css">
	.st0{stroke:#000000;stroke-width:0.5;stroke-miterlimit:10;}
	.st1{fill:#A9A9A9;stroke:#000000;stroke-width:0.5;stroke-miterlimit:10;}
	.st2{fill:#C6C6C6;stroke:#000000;stroke-width:0.5;stroke-miterlimit:10;}
	.st3{fill:#FF0000;stroke:#000000;stroke-width:0.5;stroke-miterlimit:10;}
	.st4{fill:#FF0000;stroke:#000000;stroke-miterlimit:10;}
	.st5{fill:#FFFFFF;}
	.st6{font-family:'ArticulatCF-Medium';}
	.st7{font-size:157.2292px;}
</style>
<g id="Laag_1">
</g>
<g id="Laag_2">
	<g id="DQ6svM.tif">
		<g>
			<path d="M1108.09,912.03c-2.88,12.79-4.63,25.08-8.45,36.74c-15,45.79-47.38,75.95-95.28,85.65
				c-82.17,16.64-143.24-38.09-155.01-98.18c-1.2-6.14-2.42-12.32-2.97-18.54c-0.41-4.65-2.36-5.78-7.01-5.78
				c-47.48,0-94.95-0.13-142.43-0.41c-46.89-0.28-93.77-0.59-140.65-1.23c-26.24-0.36-41.02-11.32-46.54-36.28
				c-7.33-33.13-5.67-65.99,7.7-97.8c6.32-15.05,17.36-26.48,29.92-36.74c8.85-7.22,17.65-14.5,26.74-21.43
				c25.7-19.59,41.48-45.63,52.53-74.81c14.19-37.45,21.72-76.37,27.2-115.73c8.53-61.35,18.57-122.45,38.91-181.35
				c27.1-78.44,80.46-133.82,159.46-165.78c9.39-3.8,19.02-7.09,28.64-10.33c7.1-2.39,7.55-2.52,4.86-9.56
				c-4.63-12.1-6.66-24.5-6.08-37.39c1.8-40.29,28.07-74.01,67.6-86.56c37.59-11.93,79.52,0.48,104.95,31.72
				c19.03,23.38,26.23,49.68,18.51,79.08c-0.82,3.12-1.56,6.27-2.42,9.39c-2.91,10.53-3.01,10.78,7.84,14.3
				c33.57,10.9,64.84,25.93,92.55,47.47c49.58,38.54,81.47,88.14,98.03,147.22c14.39,51.34,24.85,103.73,31.55,156.53
				c5.63,44.37,14.43,87.71,31.5,129.5c11.2,27.41,27.6,50.9,52.12,68.9c9.67,7.1,18.7,15.03,27.93,22.69
				c21.55,17.88,32.15,41.13,35.37,67.95c2.23,18.54,2.71,37.09-0.03,55.63c-1.77,12.01-7.23,22.33-15.41,31.43
				c-7.45,8.29-16.91,11.8-28.14,11.9c-33.54,0.29-67.09,0.96-100.63,1.15c-62.58,0.34-125.16,0.45-187.75,0.65
				C1111.45,912.04,1109.7,912.03,1108.09,912.03z M1384.11,848.76c-1.6-12.32-2.95-23.75-4.59-35.13
				c-1.59-11.04-7.09-19.82-16.42-26.57c-7.38-5.34-14.25-11.32-21.42-16.92c-23.74-18.54-44.1-39.87-58.77-65.97
				c-14.82-26.37-23.62-54.9-32.22-83.52c-11.67-38.83-14.92-79.04-21.11-118.77c-7.31-46.93-15.87-93.66-31.99-138.63
				c-17.69-49.35-49.08-88.13-96.88-113.71c-57.22-30.62-118.53-35.5-181.03-23.45c-84.77,16.33-141.23,65.75-167.34,145.56
				c-16.36,49.99-26.36,101.54-32.44,153.66c-5.54,47.52-15.57,93.97-32.08,139.07c-12.27,33.53-29.44,64.25-56.73,88.66
				c-13.23,11.83-27.63,22.42-41.34,33.77c-3.98,3.29-8.42,6.71-10.83,11.01c-8.86,15.84-8.14,33.47-9.51,50.95
				C840.81,848.76,1111.46,848.76,1384.11,848.76z M911.47,912.42c0.36,29.21,26.93,64.99,71.27,61.74
				c26.38-1.93,58.52-28.11,58.34-61.74C997.87,912.42,954.67,912.42,911.47,912.42z M976.8,157.36
				c16.35-0.02,31.85-14.88,31.74-30.41c-0.13-18.07-14.29-32.09-32.47-32.16c-17.22-0.07-31.71,14.03-31.77,30.89
				C944.23,142.53,959.47,157.38,976.8,157.36z"/>
		</g>
	</g>
	<circle class="st4" cx="1238.92" cy="295.63" r="120.06"/>
	<text transform="matrix(1.1964 0 0 1 1201.5273 346.875)" class="st5 st6 st7">1</text>
</g>
</svg>
